<svg
   viewBox="110 34 216 48"
   version="1.1"
   xmlns="http://www.w3.org/2000/svg">
  <g
     aria-label="Knowage"
     transform="translate(110.3 70.93) scale(.98 1)"
     style="font-weight:700;font-size:47px;font-family:CocoEng-Bold, CocoEng;fill:#ffffff">
    <path d="m 3.948,0 h 6.345 V -8.977 L 15.134,-14.523 25.427,0 h 7.614 L 19.317,-19.317 31.255,-33.041 H 23.406 L 10.293,-17.672 V -33.041 H 3.948 Z" />
    <path d="m 36.382999,0 h 6.016 v -13.63 c 0,-3.384 2.632,-6.016 6.063,-6.016 3.384,0 5.405,2.162 5.405,6.11 V 0 h 6.016 v -14.57 c 0,-6.721 -3.854,-10.622 -9.776,-10.622 -3.337,0 -6.157,1.222 -8.037,3.431 l -2.162,-2.867 h -3.525 z" />
    <path d="m 77.083998,0.658 c 7.332,0 13.066,-5.687 13.066,-12.878 0,-7.191 -5.734,-12.972 -13.019,-12.972 -7.332,0 -13.019,5.781 -13.019,12.972 0,7.144 5.687,12.878 12.972,12.878 z m 0.047,-5.64 c -3.948,0 -7.05,-3.102 -7.05,-7.285 0,-4.136 3.102,-7.285 7.05,-7.285 3.901,0 7.05,3.149 7.05,7.285 0,4.183 -3.149,7.285 -7.05,7.285 z" />
    <path d="m 99.972988,0 h 5.875002 l 4.042,-10.763 4.183,10.763 h 5.546 l 9.541,-24.628 h -6.533 l -6.392,17.813 -3.901,-10.528 2.726,-7.285 h -6.392 l -5.734,17.813 -6.110002,-17.813 h -6.439 z" />
    <path d="m 143.304,0.564 c 3.243,0 5.687,-1.363 7.379,-3.337 L 152.751,0 h 3.525 v -24.628 h -3.525 l -2.068,2.773 c -1.739,-2.021 -4.136,-3.337 -7.379,-3.337 -6.815,0 -12.032,5.734 -12.032,12.878 0,7.191 5.217,12.878 12.032,12.878 z m 0.564,-5.64 c -3.948,0 -6.627,-3.008 -6.627,-7.191 0,-4.183 2.679,-7.285 6.627,-7.285 3.901,0 6.721,3.102 6.721,7.285 0,4.183 -2.82,7.191 -6.721,7.191 z" />
    <path d="m 172.587,-25.192 c -6.721,0 -11.515,5.217 -11.515,12.032 0,6.909 4.794,11.985 11.515,11.985 3.196,0 5.687,-1.269 7.426,-3.055 v 1.034 c 0,4.136 -2.444,6.815 -7.191,6.815 -2.538,0 -4.7,-0.658 -7.003,-2.491 l -3.243,4.324 c 3.102,2.397 6.533,3.478 10.34,3.478 8.366,0 12.925,-5.499 12.925,-12.408 v -21.15 h -3.525 l -2.162,2.82 c -1.739,-1.974 -4.277,-3.384 -7.567,-3.384 z m 0.987,5.405 c 3.901,0 6.58,2.867 6.58,6.721 0,3.807 -2.679,6.627 -6.58,6.627 -3.948,0 -6.533,-2.773 -6.533,-6.674 0,-3.76 2.632,-6.674 6.533,-6.674 z" />
    <path d="m 203.18401,0.658 c 4.042,0 6.909,-1.222 9.635,-3.572 l -2.914,-3.807 c -2.068,1.551 -3.807,2.162 -6.533,2.162 -3.713,0 -6.11,-2.115 -6.768,-5.781 h 17.672 c 0.141,-0.799 0.141,-1.363 0.141,-2.021 0,-7.426 -4.23,-12.784 -11.656,-12.784 -7.426,0 -12.079,5.734 -12.079,12.925 0,7.05 4.888,12.878 12.502,12.878 z m -6.58,-15.322 c 0.658,-3.431 2.867,-5.452 6.204,-5.452 3.337,0 5.405,2.068 6.016,5.452 z" />
  </g>
</svg>
